<?xml version="1.0" encoding="UTF-8"?>
<!-- Generator: https://ezgif.com/png-to-svg -->
<svg version="1.1" xmlns="http://www.w3.org/2000/svg" width="240" height="240">
<path d="M0 0 C16.95 15.04 28.72 32.25 36 53.75 C36.24 54.46 36.48 55.16 36.72 55.89 C40.15 66.58 40.99 76.93 40.94 88.13 C40.94 88.79 40.93 89.46 40.93 90.14 C40.77 118.01 31.71 144.73 12.63 165.44 C11.87 166.27 11.87 166.27 11.11 167.11 C-0.91 180.13 -19.29 195.91 -37.51 198.78 C-42.85 198.88 -42.85 198.88 -45.09 197 C-47.04 193.12 -46.8 189.43 -46.78 185.15 C-46.79 184.24 -46.8 183.33 -46.81 182.4 C-46.85 179.49 -46.86 176.59 -46.87 173.69 C-46.89 169.88 -46.92 166.08 -46.97 162.27 C-46.97 161.41 -46.96 160.54 -46.96 159.65 C-47.05 151.93 -49.1 145.96 -53.37 139.44 C-52.58 139.27 -51.78 139.1 -50.95 138.93 C-36.38 135.71 -20.88 131.93 -11.37 119.44 C-2.44 105.11 -0.12 88.24 -3.03 71.72 C-4.62 65.98 -6.84 61.57 -10.25 56.69 C-13.38 52.08 -13.38 52.08 -13.34 49.22 C-12.94 47.76 -12.49 46.32 -12.01 44.9 C-10.17 37.76 -11.98 29.3 -14.37 22.44 C-23.69 22.91 -31.92 25.84 -39.5 31.32 C-44.23 34.39 -48.03 33.4 -53.37 32.44 C-68.01 30.23 -82.86 29.37 -97.37 33.04 C-102.7 34.11 -105.34 33.16 -109.87 30.19 C-117.55 25.51 -125.58 23.09 -134.37 21.44 C-136.79 30.79 -137.37 40.48 -135.62 50 C-135.37 53.44 -135.37 53.44 -137.06 55.94 C-138.21 57.18 -138.21 57.18 -139.37 58.44 C-147.87 73.02 -147.35 88.59 -143.63 104.67 C-140.54 115.28 -134.56 123.96 -125.19 129.95 C-115.53 135.06 -105.04 137.45 -94.37 139.44 C-94.7 139.93 -95.03 140.41 -95.36 140.91 C-97.68 144.47 -99.54 147.66 -100.75 151.75 C-101.9 154.96 -102.3 155.39 -105.31 157.44 C-111.7 159.51 -119.42 159.67 -125.62 157 C-131.2 153.74 -135.03 148.38 -139 143.41 C-142.1 139.61 -144.59 137.07 -149.37 135.44 C-152.1 135.23 -154.64 135.3 -157.37 135.44 C-156.23 138.89 -155.68 139.09 -152.75 140.94 C-146.23 145.64 -142.62 152.64 -139.31 159.82 C-136.95 164.72 -133.69 167.34 -128.75 169.69 C-119.82 171.68 -111.4 171.39 -102.37 170.44 C-102.29 174.55 -102.23 178.65 -102.19 182.75 C-102.16 183.92 -102.14 185.09 -102.11 186.29 C-102.1 187.41 -102.09 188.53 -102.08 189.68 C-102.07 190.71 -102.05 191.74 -102.03 192.81 C-102.37 195.44 -102.37 195.44 -103.69 197.28 C-106.56 199.26 -108.99 198.77 -112.37 198.44 C-115.01 197.57 -117.37 196.66 -119.87 195.5 C-120.57 195.19 -121.26 194.88 -121.97 194.55 C-134.61 188.66 -145.1 181.64 -155 171.8 C-156.19 170.62 -157.41 169.49 -158.64 168.36 C-171.27 156.55 -179.27 140.3 -184.75 124.13 C-184.99 123.43 -185.23 122.72 -185.47 122 C-188.9 111.3 -189.74 100.95 -189.69 89.75 C-189.68 89.09 -189.68 88.43 -189.68 87.74 C-189.52 59.87 -180.46 33.17 -161.37 12.44 C-160.9 11.93 -160.43 11.41 -159.94 10.88 C-118.7 -33.54 -46.83 -40.28 0 0 Z " fill="#000000" transform="translate(194.37451171875,33.5576171875)"/>
</svg>
